# xmcd
#
# Track frame offsets: 
#        150
#        23999
#        35619
#        44219
#        58108
#        72065
#        85408
#        98858
#        112116
#        124092
#        140078
#        155045
#        183264
#        201662
#        220364
#        233690
#        244194
#        255707
#        304329
#        325103
#
# Disc length: 4684 seconds
#
# Revision: 0
# Processed by: cddbd v1.5.2PL0 Copyright (c) Steve Scherf et al.
# Submitted via: ExactAudioCopy v0.99pb5
#
DISCID=39124a14
DTITLE=The Jon Spencer Blues Explosion - Orange and Experimental Remixes
DTITLE=Various Artist - Disc 1 of 2
DYEAR=2010
DGENRE=Blues
TTITLE0=Bellbottoms
TTITLE1=Ditch
TTITLE2=Dang
TTITLE3=Very Rare
TTITLE4=Sweat
TTITLE5=Cowboy
TTITLE6=Orange
TTITLE7=Brenda
TTITLE8=Dissect
TTITLE9=Blues X Man
TTITLE10=Full Grown
TTITLE11=Flavor
TTITLE12=Greyhound
TTITLE13=Showgirl
TTITLE14=Miss Elaine
TTITLE15=Haircut
TTITLE16=Bellbottoms (Original Long Ending)
TTITLE17=Brenda-BX Man-78 Style-Greyhound (Live at CBGB)
TTITLE18=Frustrate (VPRO)
TTITLE19=Very Rare (VPRO)
EXTD=
EXTT0=
EXTT1=
EXTT2=
EXTT3=
EXTT4=
EXTT5=
EXTT6=
EXTT7=
EXTT8=
EXTT9=
EXTT10=
EXTT11=
EXTT12=
EXTT13=
EXTT14=
EXTT15=
EXTT16=
EXTT17=
EXTT18=
EXTT19=
PLAYORDER=
